<svg width="32" height="32" viewBox="0 0 32 32" fill="none" xmlns="http://www.w3.org/2000/svg">
<rect width="32" height="32" rx="16" fill="#E5E7EA"/>
<path d="M16 11.3125C16.8594 11.3125 17.5625 12.0156 17.5625 12.875C17.5625 13.7344 16.8594 14.4375 16 14.4375C15.1406 14.4375 14.4375 13.7344 14.4375 12.875C14.4375 12.0156 15.1406 11.3125 16 11.3125ZM16 18.3438C18.1094 18.3438 20.5312 19.3516 20.6875 19.9062V20.6875H11.3125V19.9141C11.4688 19.3516 13.8906 18.3438 16 18.3438ZM16 9.75C14.2734 9.75 12.875 11.1484 12.875 12.875C12.875 14.6016 14.2734 16 16 16C17.7266 16 19.125 14.6016 19.125 12.875C19.125 11.1484 17.7266 9.75 16 9.75ZM16 16.7812C13.9141 16.7812 9.75 17.8281 9.75 19.9062V22.25H22.25V19.9062C22.25 17.8281 18.0859 16.7812 16 16.7812Z" fill="#1A1D1F"/>
</svg>
